<svg width="17" height="15" viewBox="0 0 336 276" xmlns="http://www.w3.org/2000/svg"><path d="M291 150.242V79c0-18.778-15.222-34-34-34H79c-18.778 0-34 15.222-34 34v42.264l67.179-44.192 80.398 71.614 56.686-29.14L291 150.242zm-.345 51.622l-42.3-30.246-56.3 29.884-80.773-66.925L45 174.187V197c0 18.778 15.222 34 34 34h178c17.126 0 31.295-12.663 33.655-29.136zM79 0h178c43.63 0 79 35.37 79 79v118c0 43.63-35.37 79-79 79H79c-43.63 0-79-35.37-79-79V79C0 35.37 35.37 0 79 0z"/>
    <g>
        <text font-style="normal" font-weight="normal" transform="matrix(5.23362 0 0 10.9506 -998.873 -2213.55)" stroke="#000" xml:space="preserve" text-anchor="start" font-family="monospace" font-size="24" id="svg_2" y="221.37306" x="193.88064" stroke-width="0" fill="#000000">TEXT</text>
        <text font-style="normal" font-weight="normal" transform="matrix(5.23362 0 0 10.9506 -998.873 -2213.55)" stroke="#000" xml:space="preserve" text-anchor="start" font-family="monospace" font-size="24" id="svg_5" y="221.5557" x="194.45386" stroke-width="0" fill="#FFFFFF">TEXT</text>
    </g>
</svg>